<?xml version="1.0" encoding="UTF-8"?>
<svg xmlns="http://www.w3.org/2000/svg" xmlns:xlink="http://www.w3.org/1999/xlink" viewBox="0 0 48 48" width="48px" height="48px">
<g id="surface48845220">
<rect x="0" y="0" width="48" height="48" style="fill:rgb(0%,0%,0%);fill-opacity:1;stroke:none;"/>
<path style=" stroke:none;fill-rule:nonzero;fill:rgb(96.078432%,48.627451%,0%);fill-opacity:1;" d="M 14.125 35.1875 L 4.4375 27.5625 L 9.25 18.625 L 23.0625 24 Z M 14.125 35.1875 "/>
<path style=" stroke:none;fill-rule:nonzero;fill:rgb(11.764706%,53.333336%,89.803922%);fill-opacity:1;" d="M 44 14.6875 L 43.25 37.8125 L 27.875 44 L 18.625 38 L 32.125 24 Z M 44 14.6875 "/>
<path style=" stroke:none;fill-rule:nonzero;fill:rgb(16.078432%,38.431373%,100%);fill-opacity:1;" d="M 44 14.6875 L 31.8125 29.0625 L 26.25 11 L 31.5625 4.625 Z M 44 14.6875 "/>
<path style=" stroke:none;fill-rule:nonzero;fill:rgb(67.058825%,27.843139%,73.725492%);fill-opacity:1;" d="M 34.6875 19.625 L 23.25 37.1875 L 7.25 43 L 9.8125 34 L 13.125 22.875 Z M 34.6875 19.625 "/>
<path style=" stroke:none;fill-rule:nonzero;fill:rgb(91.37255%,11.764706%,38.82353%);fill-opacity:1;" d="M 13.125 22.875 L 4 19.8125 L 9.8125 4 L 22.3125 5.5 L 34.6875 19.625 Z M 13.125 22.875 "/>
<path style=" stroke:none;fill-rule:nonzero;fill:rgb(0%,0%,0.392157%);fill-opacity:1;" d="M 11 11 L 36 11 L 36 36 L 11 36 Z M 11 11 "/>
<path style=" stroke:none;fill-rule:nonzero;fill:rgb(100%,100%,100%);fill-opacity:1;" d="M 14 31.5 L 23 31.5 L 23 33 L 14 33 Z M 20.5 15.875 L 20.5 14 L 15.5 14 L 15.5 15.875 L 17 15.875 L 17 22.375 L 15.5 22.375 L 15.5 24.25 L 20.5 24.25 L 20.5 22.375 L 19.160156 22.375 L 19.160156 15.875 Z M 25.375 24.5 C 23.5 24.5 22.503906 23.402344 22.125 22.953125 L 23.535156 21.347656 C 23.789062 21.628906 24.5 22.375 25.375 22.375 C 26.5 22.375 26.75 21.25 26.75 20.625 L 26.75 14 L 29 14 L 29 20.625 C 29 21.25 29 22.25 28.25 23.25 C 27.726562 23.949219 26.5 24.5 25.375 24.5 Z M 25.375 24.5 "/>
</g>
</svg>
